<svg width="39106" height="2876" xmlns="http://www.w3.org/2000/svg" xmlns:xlink="http://www.w3.org/1999/xlink" xml:space="preserve" overflow="hidden"><defs><filter id="fx0" x="-10%" y="-10%" width="120%" height="120%" filterUnits="userSpaceOnUse" primitiveUnits="userSpaceOnUse"><feComponentTransfer color-interpolation-filters="sRGB"><feFuncR type="discrete" tableValues="0 0"/><feFuncG type="discrete" tableValues="0 0"/><feFuncB type="discrete" tableValues="0 0"/><feFuncA type="linear" slope="0.431373" intercept="0"/></feComponentTransfer><feGaussianBlur stdDeviation="7.9646 7.96836"/></filter><clipPath id="clip1"><rect x="-17518" y="688" width="39106" height="2876"/></clipPath><clipPath id="clip2"><rect x="-7.5" y="-7.50351" width="16398" height="1073.01"/></clipPath><clipPath id="clip3"><rect x="0" y="0" width="16382" height="1060"/></clipPath></defs><g clip-path="url(#clip1)" transform="translate(17518 -688)"><g clip-path="url(#clip2)" filter="url(#fx0)" transform="matrix(2 0 0 1.99906 -17322 835)"><g clip-path="url(#clip3)"><path d="M16221.4-527.731C16188.2-527.731 16151.3-503.283 16110.8-454.387 16070.3-405.492 16043.6-353.54 16030.6-298.532 16091-310.756 16144.1-336.541 16190.2-375.887 16236.2-415.233 16259.2-450.949 16259.2-483.037 16259.2-495.643 16255.7-506.244 16248.6-514.839 16241.6-523.434 16232.5-527.731 16221.4-527.731ZM12189.4-527.731C12156.2-527.731 12119.3-503.283 12078.8-454.387 12038.3-405.492 12011.6-353.54 11998.6-298.532 12059-310.756 12112.1-336.541 12158.2-375.887 12204.2-415.233 12227.2-450.949 12227.2-483.037 12227.2-495.643 12223.7-506.244 12216.6-514.839 12209.6-523.434 12200.5-527.731 12189.4-527.731ZM9416.91-527.731C9383.67-527.731 9346.81-503.283 9306.32-454.387 9265.83-405.492 9239.09-353.54 9226.1-298.532 9286.46-310.756 9339.65-336.541 9385.68-375.887 9431.71-415.233 9454.73-450.949 9454.73-483.037 9454.73-495.643 9451.19-506.244 9444.12-514.839 9437.06-523.434 9427.99-527.731 9416.91-527.731ZM6438.91-527.731C6405.67-527.731 6368.81-503.283 6328.32-454.387 6287.83-405.492 6261.09-353.54 6248.1-298.532 6308.46-310.756 6361.65-336.541 6407.68-375.887 6453.71-415.233 6476.73-450.949 6476.73-483.037 6476.73-495.643 6473.19-506.244 6466.13-514.839 6459.06-523.434 6449.99-527.731 6438.91-527.731ZM3668.41-527.731C3635.17-527.731 3598.31-503.283 3557.82-454.387 3517.33-405.492 3490.59-353.54 3477.6-298.532 3537.96-310.756 3591.15-336.541 3637.18-375.887 3683.21-415.233 3706.23-450.949 3706.23-483.037 3706.23-495.643 3702.69-506.244 3695.63-514.839 3688.56-523.434 3679.49-527.731 3668.41-527.731ZM12574.5-587.323C12596.7-587.323 12613.7-581.784 12625.5-570.706 12637.3-559.628 12643.3-530.214 12643.3-482.464 12643.3-446.174 12632.4-375.887 12610.6-271.601 12693.5-465.656 12785.9-562.684 12887.9-562.684 12976.6-562.684 13028.5-492.969 13043.8-353.54 13059.1-211.436 13076.6-140.385 13096.5-140.385 13105.3-140.385 13115.4-142.294 13126.9-146.114 13140.6-150.698 13151.5-152.99 13159.5-152.99 13177.9-152.99 13187-142.294 13187-120.903 13187-101.421 13174.4-80.6972 13149.2-58.7323 13124-36.7674 13092.3-25.7849 13054.1-25.7849 13009.8-25.7849 12978.1-45.0758 12959-83.6577L12959.6-83.6577C12941.2-118.038 12927.9-182.213 12919.5-276.185 12911.1-373.977 12892.3-422.873 12863.3-422.873 12835.8-422.873 12788.2-371.971 12720.6-270.169 12653-168.366 12611.4-93.2077 12595.7-44.6938 12592.3-30.1779 12585.9-18.1449 12576.5-8.59496 12567.2 0.954989 12557.9 5.72998 12548.7 5.72998 12490.7 5.72998 12461.6-20.8189 12461.6-73.9167 12461.6-91.8707 12467.4-132.745 12478.8-196.538 12493.7-279.05 12501.2-379.898 12501.2-499.081 12501.2-517.035 12509-536.231 12524.7-556.668 12540.3-577.104 12556.9-587.323 12574.5-587.323ZM15147.2-598.783C15173.2-598.783 15193.5-592.671 15208-580.447 15222.5-568.223 15229.8-554.471 15229.8-539.191 15229.8-523.911 15222.7-492.396 15208.6-444.646L15205.1-432.04C15184.1-358.315 15171.5-298.15 15167.3-251.546 15163.1-204.942 15161-167.315 15161-138.666 15161-115.364 15165-84.2307 15173-45.2668 15174.2-38.3909 15174.7-32.6609 15174.7-28.0769 15174.7-19.2909 15166.4-7.44897 15149.8 7.44897 15133.2 22.3469 15115.3 29.7959 15096.2 29.7959 15045.8 29.7959 15020.6-8.40397 15020.6-84.8037 15020.6-149.743 15029.8-228.817 15048.1-322.025 15051.9-342.653 15055.4-362.135 15058.4-380.471L15058.4-379.898C15070.7-449.421 15076.8-489.149 15076.8-499.081 15076.8-527.349 15083-551.033 15095.4-570.133 15107.8-589.233 15125.1-598.783 15147.2-598.783ZM5320.25-598.783C5346.22-598.783 5366.47-592.671 5380.98-580.447 5395.5-568.223 5402.76-554.471 5402.76-539.191 5402.76-523.911 5395.69-492.396 5381.56-444.646L5378.12-432.04C5357.11-358.315 5344.5-298.15 5340.3-251.546 5336.1-204.942 5334-167.315 5334-138.666 5334-115.364 5338.01-84.2307 5346.03-45.2668 5347.18-38.3909 5347.75-32.6609 5347.75-28.0769 5347.75-19.2909 5339.44-7.44897 5322.83 7.44897 5306.21 22.3469 5288.35 29.7959 5269.25 29.7959 5218.83 29.7959 5193.61-8.40397 5193.61-84.8037 5193.61-149.743 5202.78-228.817 5221.12-322.025 5224.94-342.653 5228.38-362.135 5231.43-380.471L5231.43-379.898C5243.66-449.421 5249.77-489.149 5249.77-499.081 5249.77-527.349 5255.97-551.033 5268.39-570.133 5280.8-589.233 5298.09-598.783 5320.25-598.783ZM1054.89-606.805C1077.05-606.805 1094.72-599.451 1107.89-584.744 1121.07-570.037 1127.66-555.235 1127.66-540.337 1127.66-513.215 1118.11-474.633 1099.01-424.592 1087.94-394.796 1076-352.68 1063.2-298.245 1050.4-243.811 1044.01-208.953 1044.01-193.673 1044.01-142.867 1054.51-117.465 1075.52-117.465 1108.75-117.465 1153.64-149.361 1210.17-213.155 1266.71-276.949 1303.57-342.271 1320.76-409.121 1337.95-474.442 1353.23-517.226 1366.6-537.472 1379.97-557.718 1398.88-567.841 1423.33-567.841 1463.06-567.841 1482.92-545.685 1482.92-501.373 1482.92-494.879 1479.68-481.891 1473.18-462.409 1450.64-394.796 1439.37-318.587 1439.37-233.783 1439.37-134.464 1456.18-75.0627 1489.8-55.5808 1500.88-49.0868 1506.41-41.0649 1506.41-31.5149 1506.41-17.7629 1496.67-4.77498 1477.19 7.44897 1457.71 19.6729 1439.18 25.7849 1421.61 25.7849 1391.43 25.7849 1368.23 4.48848 1351.99-38.1044 1335.76-80.6972 1327.64-137.902 1327.64-209.717 1290.97-142.867 1248.47-89.7697 1200.15-50.4238 1151.82-11.078 1102.83 8.59496 1053.17 8.59496 1023.76 8.59496 994.059-6.87598 964.072-37.8179 934.085-68.7598 919.092-116.319 919.092-180.494 919.092-225.952 930.552-294.521 953.472-386.201 973.336-461.836 983.268-519.327 983.268-558.673 998.548-590.761 1022.42-606.805 1054.89-606.805ZM5109.2-623.422C5129.07-623.422 5145.4-616.928 5158.19-603.94 5170.99-590.952 5177.39-575.099 5177.39-556.381 5177.39-534.225 5161.35-512.451 5129.26-491.059 5097.93-469.667 5055.25-420.772 5001.19-344.372 4947.14-267.972 4888.98-171.899 4826.71-56.1538 4791.57 9.93197 4760.06 42.9749 4732.17 42.9749 4708.1 42.9749 4683.27 26.7399 4657.68-5.72998 4658.06-30.9419 4642.97-85.1857 4612.41-168.461 4568.21-286.797 4539.89-380.663 4527.46-450.059L4527.43-450.202 4526.57-449.406C4519.4-443.177 4510.69-440.062 4500.45-440.062 4476.77-440.062 4455.18-449.803 4435.7-469.285 4421.95-481.891 4411.06-488.194 4403.04-488.194 4374.39-488.194 4326.45-443.691 4259.22-354.686 4191.99-265.68 4151.49-165.596 4137.74-54.4348 4133.54-22.3469 4124.18 0.0955034 4109.67 12.8925 4095.15 25.6894 4075.48 32.0879 4050.65 32.0879 4024.29 32.0879 4005.57 17.0944 3994.49-12.8925 3983.42-42.8793 3977.88-91.8707 3977.88-159.866 3977.88-187.752 3978.64-225.379 3980.17-272.747 3981.7-317.441 3986.09-372.067 3993.35-436.624 3995.26-453.432 3996.59-466.611 3997.36-476.161 4000.8-513.597 4004.71-539.287 4009.1-553.23 4013.5-567.172 4023.72-580.256 4039.76-592.48 4055.8-604.704 4073.57-610.816 4093.05-610.816 4113.68-610.816 4129.34-604.895 4140.03-593.053 4150.73-581.211 4156.08-568.223 4156.08-554.089 4156.08-536.135 4147.48-498.89 4130.29-442.354 4124.18-422.873 4119.03-399.571 4114.82-372.449L4100.5-284.207 4110.24-302.543C4156.46-395.369 4206.22-470.718 4259.51-528.591 4312.79-586.463 4364.84-615.4 4415.65-615.4 4454.61-615.4 4486.41-604.704 4511.05-583.312 4515.67-579.301 4519.86-575.149 4523.61-570.856L4526.55-567.328 4527.38-569.838C4537.97-599.448 4560.2-614.254 4594.08-614.254 4642.21-614.254 4666.28-585.604 4666.28-528.304 4666.28-491.632 4667.13-465.561 4668.85-450.09 4670.57-434.619 4676.49-406.542 4686.62-365.859 4696.74-325.176 4706.77-291.274 4716.7-264.152 4722.43-247.726 4729.31-226.334 4737.33-199.976 4741.91-183.55 4745.92-172.09 4749.36-165.596 4751.65-169.034 4759.67-183.932 4773.43-210.29 4781.45-226.334 4808.57-271.888 4854.79-346.95 4901.01-422.013 4941.6-481.891 4976.55-526.585 5011.51-571.279 5037.58-598.592 5054.77-608.524 5071.96-618.456 5090.1-623.422 5109.2-623.422ZM7603.58-625.141 7440.85-315.722C7464.91-319.924 7489.55-323.744 7514.76-327.182 7531.57-329.092 7574.35-337.114 7643.11-351.248 7659.92-354.686 7676.73-357.742 7693.54-360.416 7684.37-382.954 7657.25-463.173 7612.17-601.075 7607.97-613.681 7605.1-621.703 7603.58-625.141ZM10795.3-625.714C10852.6-625.714 10881.3-590.952 10881.3-521.428 10881.3-498.89 10871.1-441.399 10850.9-348.956 10838.7-293.948 10832.5-254.029 10832.5-229.199 10941.8-469.094 11040.4-589.042 11128.2-589.042 11163.7-589.042 11192.3-574.908 11213.9-546.64 11235.5-518.372 11246.6-455.724 11247.4-358.697 11247.8-270.073 11252.4-225.761 11261.2-225.761 11268-225.761 11291.9-268.736 11332.8-354.686 11378.2-449.803 11417.1-512.642 11449.4-543.202 11481.7-573.762 11515.6-589.042 11551.1-589.042 11593.5-589.042 11624.2-570.802 11643.3-534.321 11662.4-497.84 11675.8-436.242 11683.5-349.529 11689.2-280.769 11696.9-228.817 11706.7-193.673 11716.4-158.529 11733.1-135.228 11756.8-123.768 11775.9-114.6 11785.4-100.848 11785.4-82.5117 11785.4-66.0858 11774.6-49.5643 11752.8-32.9474 11731-16.3304 11708.9-8.02197 11686.3-8.02197 11647.4-8.02197 11616.9-27.2174 11594.9-65.6083 11573-103.999 11558.2-181.067 11550.5-296.813 11546.3-352.585 11541.8-389.543 11537-407.688 11532.3-425.833 11525.1-434.905 11515.6-434.905 11507.2-434.905 11494.9-421.249 11478.9-393.936 11462.8-366.623 11435.2-312.284 11395.8-230.918 11361-157.574 11331.2-106.387 11306.1-77.3547 11281.1-48.3228 11254.3-33.8069 11225.6-33.8069 11203.5-33.8069 11181.2-43.3568 11158.9-62.4568 11136.5-81.5567 11124.4-150.889 11122.5-270.455 11120.6-377.033 11113.7-430.322 11101.9-430.322 11085.8-430.322 11047.2-382.954 10986.1-288.218 10925-193.482 10879-108.679 10848-33.8069 10843.4 5.53897 10821.5 25.2119 10782.1 25.2119 10732.1 25.2119 10707.1-10.887 10707.1-83.0847 10707.1-199.976 10713.4-299.869 10726-382.763 10735.9-447.32 10740.9-510.732 10740.9-572.998 10740.9-587.896 10745.6-600.406 10755.2-610.529 10764.7-620.652 10778.1-625.714 10795.3-625.714ZM5851.49-643.477C5887.78-643.477 5918.72-625.427 5944.32-589.328 5969.91-553.23 5982.71-515.698 5982.71-476.734 5982.71-440.062 5975.93-415.328 5962.37-402.531 5948.81-389.734 5935.72-383.336 5923.12-383.336 5886.06-383.336 5864.48-408.93 5858.37-460.117 5853.78-497.553 5844.43-516.271 5830.29-516.271 5800.5-516.271 5761.15-473.869 5712.25-389.066 5663.36-304.262 5638.91-229.963 5638.91-166.169 5638.91-114.6 5666.8-88.8147 5722.57-88.8147 5784.07-88.8147 5846.14-110.589 5908.79-154.136 5938.21-175.146 5961.51-185.651 5978.7-185.651 5999.71-185.651 6010.21-175.146 6010.21-154.136 6010.21-124.723 5976.5-86.4272 5909.08-39.2504 5841.66 7.92647 5770.89 31.5149 5696.78 31.5149 5633.75 31.5149 5585.81 14.3249 5552.96-20.0549 5520.11-54.4348 5503.68-102.185 5503.68-163.304 5503.68-259.568 5542.84-363.663 5621.15-475.588 5699.46-587.514 5776.24-643.477 5851.49-643.477ZM16236.3-644.05C16279.1-644.05 16313.5-630.489 16339.4-603.367 16365.4-576.245 16378.4-543.966 16378.4-506.53 16378.4-440.062 16346.5-376.746 16282.7-316.581 16218.9-256.417 16137.2-214.874 16037.5-191.954 16026-189.28 16020.3-182.404 16020.3-171.326 16020.3-152.99 16028.4-135.514 16044.6-118.897 16060.9-102.28 16082.6-93.9717 16109.7-93.9717 16186.5-93.9717 16262.7-133.509 16338.3-212.582 16352.8-227.862 16366.9-235.502 16380.7-235.502 16403.6-235.502 16415.1-222.705 16415.1-197.111 16415.1-157.383 16381.7-109.92 16314.8-54.7213 16248 0.477502 16172.5 28.0769 16088.5 28.0769 16023.9 28.0769 15973.1 7.73548 15936.1-32.9474 15899-73.6302 15880.5-130.262 15880.5-202.841 15880.5-309.801 15918.3-410.076 15993.9-503.665 16069.6-597.255 16150.4-644.05 16236.3-644.05ZM12204.3-644.05C12247.1-644.05 12281.5-630.489 12307.4-603.367 12333.4-576.245 12346.4-543.966 12346.4-506.53 12346.4-440.062 12314.5-376.746 12250.7-316.581 12186.9-256.417 12105.2-214.874 12005.5-191.954 11994-189.28 11988.3-182.404 11988.3-171.326 11988.3-152.99 11996.4-135.514 12012.6-118.897 12028.9-102.28 12050.6-93.9717 12077.7-93.9717 12154.5-93.9717 12230.7-133.509 12306.3-212.582 12320.8-227.862 12334.9-235.502 12348.7-235.502 12371.6-235.502 12383.1-222.705 12383.1-197.111 12383.1-157.383 12349.7-109.92 12282.8-54.7213 12216 0.477502 12140.5 28.0769 12056.5 28.0769 11991.9 28.0769 11941.1 7.73548 11904.1-32.9474 11867-73.6302 11848.5-130.262 11848.5-202.841 11848.5-309.801 11886.3-410.076 11961.9-503.665 12037.6-597.255 12118.4-644.05 12204.3-644.05ZM9431.81-644.05C9474.59-644.05 9508.97-630.489 9534.95-603.367 9560.92-576.245 9573.91-543.966 9573.91-506.53 9573.91-440.062 9542.01-376.746 9478.22-316.581 9414.42-256.417 9332.68-214.874 9232.97-191.954 9221.51-189.28 9215.79-182.404 9215.79-171.326 9215.79-152.99 9223.9-135.514 9240.14-118.897 9256.37-102.28 9278.05-93.9717 9305.17-93.9717 9381.95-93.9717 9458.16-133.509 9533.8-212.582 9548.32-227.862 9562.45-235.502 9576.2-235.502 9599.12-235.502 9610.58-222.705 9610.58-197.111 9610.58-157.383 9577.16-109.92 9510.31-54.7213 9443.46 0.477502 9368.01 28.0769 9283.97 28.0769 9219.41 28.0769 9168.61 7.73548 9131.55-32.9474 9094.5-73.6302 9075.97-130.262 9075.97-202.841 9075.97-309.801 9113.79-410.076 9189.43-503.665 9265.06-597.255 9345.86-644.05 9431.81-644.05ZM6453.81-644.05C6496.59-644.05 6530.97-630.489 6556.95-603.367 6582.92-576.245 6595.91-543.966 6595.91-506.53 6595.91-440.062 6564.01-376.746 6500.22-316.581 6436.43-256.417 6354.68-214.874 6254.98-191.954 6243.52-189.28 6237.79-182.404 6237.79-171.326 6237.79-152.99 6245.9-135.514 6262.14-118.897 6278.37-102.28 6300.05-93.9717 6327.17-93.9717 6403.96-93.9717 6480.16-133.509 6555.8-212.582 6570.32-227.862 6584.45-235.502 6598.2-235.502 6621.12-235.502 6632.58-222.705 6632.58-197.111 6632.58-157.383 6599.16-109.92 6532.31-54.7213 6465.46 0.477502 6390.01 28.0769 6305.97 28.0769 6241.42 28.0769 6190.61 7.73548 6153.56-32.9474 6116.5-73.6302 6097.97-130.262 6097.97-202.841 6097.97-309.801 6135.79-410.076 6211.43-503.665 6287.06-597.255 6367.86-644.05 6453.81-644.05ZM3683.31-644.05C3726.09-644.05 3760.47-630.489 3786.45-603.367 3812.42-576.245 3825.41-543.966 3825.41-506.53 3825.41-440.062 3793.51-376.746 3729.72-316.581 3665.93-256.417 3584.18-214.874 3484.48-191.954 3473.02-189.28 3467.29-182.404 3467.29-171.326 3467.29-152.99 3475.4-135.514 3491.64-118.897 3507.87-102.28 3529.55-93.9717 3556.67-93.9717 3633.46-93.9717 3709.66-133.509 3785.3-212.582 3799.82-227.862 3813.95-235.502 3827.7-235.502 3850.62-235.502 3862.08-222.705 3862.08-197.111 3862.08-157.383 3828.66-109.92 3761.81-54.7213 3694.96 0.477502 3619.51 28.0769 3535.47 28.0769 3470.92 28.0769 3420.11 7.73548 3383.06-32.9474 3346-73.6302 3327.47-130.262 3327.47-202.841 3327.47-309.801 3365.29-410.076 3440.93-503.665 3516.56-597.255 3597.36-644.05 3683.31-644.05ZM10515.3-661.24C10579.8-661.24 10612.1-633.163 10612.1-577.009 10612.1-562.111 10604.7-548.741 10590-536.899 10575.3-525.057 10562.8-519.136 10552.5-519.136 10548.3-519.136 10540.8-521.81 10530.1-527.158 10519.5-532.506 10511.2-535.18 10505.5-535.18 10471.5-535.18 10434.1-523.72 10393.2-500.8 10352.3-477.88 10331.9-451.14 10331.9-420.581 10331.9-405.683 10339.1-391.262 10353.7-377.319 10368.2-363.376 10397.8-345.9 10442.5-324.89 10508.6-293.566 10552.1-265.298 10573.1-240.086 10594.1-214.874 10604.6-186.988 10604.6-156.428 10604.6-100.657 10566.9-54.1483 10491.5-16.9034 10416 20.3414 10331.3 38.9639 10237.3 38.9639 10168.2 38.9639 10133.6 13.9429 10133.6-36.0989 10133.6-54.4348 10140.9-70.0968 10155.4-83.0847 10169.9-96.0727 10186.2-102.567 10204.1-102.567 10211.4-102.567 10222.6-99.8927 10237.9-94.5447 10253.2-88.8147 10267.3-85.9497 10280.3-85.9497 10316.2-85.9497 10353.9-91.6797 10393.2-103.14 10432.5-114.6 10458.5-128.734 10471.1-145.541 10469.6-166.169 10436.8-191.381 10372.6-221.177 10293.9-258.995 10243.6-291.56 10221.9-318.873 10200.1-346.186 10189.2-375.887 10189.2-407.975 10189.2-475.588 10227.1-534.703 10303-585.317 10378.8-635.932 10449.5-661.24 10515.3-661.24ZM10019.8-661.24C10084.3-661.24 10116.6-633.163 10116.6-577.009 10116.6-562.111 10109.2-548.741 10094.5-536.899 10079.8-525.057 10067.3-519.136 10057-519.136 10052.8-519.136 10045.3-521.81 10034.6-527.158 10024-532.506 10015.7-535.18 10010-535.18 9976.01-535.18 9938.58-523.72 9897.7-500.8 9856.83-477.88 9836.39-451.14 9836.39-420.581 9836.39-405.683 9843.65-391.262 9858.17-377.319 9872.68-363.376 9902.29-345.9 9946.98-324.89 10013.1-293.566 10056.6-265.298 10077.6-240.086 10098.6-214.874 10109.1-186.988 10109.1-156.428 10109.1-100.657 10071.4-54.1483 9995.97-16.9034 9920.53 20.3414 9835.82 38.9639 9741.85 38.9639 9672.71 38.9639 9638.13 13.9429 9638.13-36.0989 9638.13-54.4348 9645.39-70.0968 9659.91-83.0847 9674.42-96.0727 9690.66-102.567 9708.61-102.567 9715.87-102.567 9727.14-99.8927 9742.42-94.5447 9757.7-88.8147 9771.83-85.9497 9784.82-85.9497 9820.73-85.9497 9858.36-91.6797 9897.7-103.14 9937.05-114.6 9963.02-128.734 9975.63-145.541 9974.1-166.169 9941.25-191.381 9877.07-221.177 9798.38-258.995 9748.15-291.56 9726.38-318.873 9704.6-346.186 9693.71-375.887 9693.71-407.975 9693.71-475.588 9731.63-534.703 9807.46-585.317 9883.28-635.932 9954.05-661.24 10019.8-661.24ZM8916.25-661.24C8980.81-661.24 9013.09-633.163 9013.09-577.009 9013.09-562.111 9005.73-548.741 8991.03-536.899 8976.32-525.057 8963.81-519.136 8953.5-519.136 8949.29-519.136 8941.84-521.81 8931.15-527.158 8920.45-532.506 8912.24-535.18 8906.51-535.18 8872.51-535.18 8835.08-523.72 8794.2-500.8 8753.33-477.88 8732.89-451.14 8732.89-420.581 8732.89-405.683 8740.15-391.262 8754.67-377.319 8769.18-363.376 8798.79-345.9 8843.48-324.89 8909.57-293.566 8953.11-265.298 8974.12-240.086 8995.13-214.874 9005.64-186.988 9005.64-156.428 9005.64-100.657 8967.92-54.1483 8892.47-16.9034 8817.03 20.3414 8732.32 38.9639 8638.35 38.9639 8569.21 38.9639 8534.63 13.9429 8534.63-36.0989 8534.63-54.4348 8541.89-70.0968 8556.41-83.0847 8570.92-96.0727 8587.16-102.567 8605.11-102.567 8612.37-102.567 8623.64-99.8927 8638.92-94.5447 8654.2-88.8147 8668.33-85.9497 8681.32-85.9497 8717.23-85.9497 8754.86-91.6797 8794.2-103.14 8833.55-114.6 8859.52-128.734 8872.13-145.541 8870.6-166.169 8837.75-191.381 8773.57-221.177 8694.88-258.995 8644.65-291.56 8622.88-318.873 8601.1-346.186 8590.21-375.887 8590.21-407.975 8590.21-475.588 8628.13-534.703 8703.96-585.317 8779.78-635.932 8850.55-661.24 8916.25-661.24ZM8420.75-661.24C8485.31-661.24 8517.59-633.163 8517.59-577.009 8517.59-562.111 8510.23-548.741 8495.53-536.899 8480.82-525.057 8468.31-519.136 8458-519.136 8453.79-519.136 8446.34-521.81 8435.65-527.158 8424.95-532.506 8416.74-535.18 8411.01-535.18 8377.01-535.18 8339.58-523.72 8298.7-500.8 8257.83-477.88 8237.39-451.14 8237.39-420.581 8237.39-405.683 8244.65-391.262 8259.17-377.319 8273.68-363.376 8303.29-345.9 8347.98-324.89 8414.07-293.566 8457.61-265.298 8478.62-240.086 8499.63-214.874 8510.14-186.988 8510.14-156.428 8510.14-100.657 8472.42-54.1483 8396.97-16.9034 8321.53 20.3414 8236.82 38.9639 8142.85 38.9639 8073.71 38.9639 8039.13 13.9429 8039.13-36.0989 8039.13-54.4348 8046.39-70.0968 8060.91-83.0847 8075.42-96.0727 8091.66-102.567 8109.61-102.567 8116.87-102.567 8128.14-99.8927 8143.42-94.5447 8158.7-88.8147 8172.83-85.9497 8185.82-85.9497 8221.73-85.9497 8259.36-91.6797 8298.7-103.14 8338.05-114.6 8364.02-128.734 8376.63-145.541 8375.1-166.169 8342.25-191.381 8278.07-221.177 8199.38-258.995 8149.15-291.56 8127.38-318.873 8105.6-346.186 8094.72-375.887 8094.72-407.975 8094.72-475.588 8132.63-534.703 8208.46-585.317 8284.28-635.932 8355.05-661.24 8420.75-661.24ZM1951.25-661.24C2015.81-661.24 2048.09-633.163 2048.09-577.009 2048.09-562.111 2040.73-548.741 2026.03-536.899 2011.32-525.057 1998.81-519.136 1988.5-519.136 1984.29-519.136 1976.85-521.81 1966.15-527.158 1955.45-532.506 1947.24-535.18 1941.51-535.18 1907.51-535.18 1870.08-523.72 1829.2-500.8 1788.33-477.88 1767.89-451.14 1767.89-420.581 1767.89-405.683 1775.15-391.262 1789.67-377.319 1804.18-363.376 1833.79-345.9 1878.48-324.89 1944.57-293.566 1988.11-265.298 2009.12-240.086 2030.13-214.874 2040.64-186.988 2040.64-156.428 2040.64-100.657 2002.92-54.1483 1927.47-16.9034 1852.03 20.3414 1767.32 38.9639 1673.35 38.9639 1604.21 38.9639 1569.64 13.9429 1569.64-36.0989 1569.64-54.4348 1576.89-70.0968 1591.41-83.0847 1605.92-96.0727 1622.16-102.567 1640.11-102.567 1647.37-102.567 1658.64-99.8927 1673.92-94.5447 1689.2-88.8147 1703.33-85.9497 1716.32-85.9497 1752.23-85.9497 1789.86-91.6797 1829.2-103.14 1868.55-114.6 1894.53-128.734 1907.13-145.541 1905.6-166.169 1872.75-191.381 1808.58-221.177 1729.88-258.995 1679.65-291.56 1657.88-318.873 1636.1-346.186 1625.22-375.887 1625.22-407.975 1625.22-475.588 1663.13-534.703 1738.96-585.317 1814.78-635.932 1885.55-661.24 1951.25-661.24ZM15604.6-829.128C15625.6-829.128 15642-822.73 15653.9-809.933 15665.7-797.136 15671.6-782.906 15671.6-767.244 15671.6-761.132 15655.4-702.114 15622.9-590.188 15744.4-600.884 15811-606.232 15822.9-606.232 15843.1-606.232 15856.5-603.271 15863-597.35 15869.5-591.429 15872.7-580.065 15872.7-563.257 15872.7-529.259 15843.9-507.676 15786.2-498.508L15588.5-465.274C15585.1-465.274 15574.3-422.682 15556.2-337.496 15538-252.31 15528.9-200.74 15528.9-182.786 15528.9-151.462 15532.3-129.593 15539-117.178 15545.7-104.763 15556.6-98.5556 15571.9-98.5556 15593.3-98.5556 15613.8-102.28 15633.5-109.729 15653.2-117.178 15679.1-133.891 15711.2-159.866 15731-176.292 15747.8-184.505 15761.6-184.505 15772.7-184.505 15781.5-181.354 15788.2-175.051 15794.9-168.748 15798.2-161.394 15798.2-152.99 15798.2-119.375 15771.1-81.2702 15716.9-38.6774 15662.6 3.91549 15605.3 25.2119 15545 25.2119 15494.6 25.2119 15456.1 10.314 15429.5-19.4819 15403-49.2778 15389.7-92.0617 15389.7-147.833 15389.7-199.403 15409-302.352 15447.6-456.679 15423.1-454.005 15406.1-452.668 15396.6-452.668L15384.5-452.668C15367-452.668 15349.1-458.398 15331-469.858 15312.8-481.318 15303.8-499.654 15303.8-524.866 15303.8-556.954 15321.9-572.998 15358.2-572.998L15480.8-577.582C15496.9-623.804 15513.9-684.351 15531.8-759.222 15542.5-805.826 15566.8-829.128 15604.6-829.128ZM13503.6-829.128C13524.6-829.128 13541-822.73 13552.9-809.933 13564.7-797.136 13570.6-782.906 13570.6-767.244 13570.6-761.132 13554.4-702.114 13521.9-590.188 13643.4-600.884 13710-606.232 13721.9-606.232 13742.1-606.232 13755.5-603.271 13762-597.35 13768.5-591.429 13771.7-580.065 13771.7-563.257 13771.7-529.259 13742.9-507.676 13685.2-498.508L13487.5-465.274C13484.1-465.274 13473.3-422.682 13455.2-337.496 13437-252.31 13427.9-200.74 13427.9-182.786 13427.9-151.462 13431.3-129.593 13438-117.178 13444.7-104.763 13455.6-98.5556 13470.9-98.5556 13492.3-98.5556 13512.8-102.28 13532.5-109.729 13552.2-117.178 13578.1-133.891 13610.2-159.866 13630-176.292 13646.8-184.505 13660.6-184.505 13671.7-184.505 13680.5-181.354 13687.2-175.051 13693.9-168.748 13697.2-161.394 13697.2-152.99 13697.2-119.375 13670.1-81.2702 13615.9-38.6774 13561.6 3.91549 13504.3 25.2119 13444 25.2119 13393.6 25.2119 13355.1 10.314 13328.5-19.4819 13302-49.2778 13288.7-92.0617 13288.7-147.833 13288.7-199.403 13308-302.352 13346.6-456.679 13322.1-454.005 13305.1-452.668 13295.6-452.668L13283.5-452.668C13266-452.668 13248.1-458.398 13230-469.858 13211.8-481.318 13202.8-499.654 13202.8-524.866 13202.8-556.954 13220.9-572.998 13257.2-572.998L13379.8-577.582C13395.9-623.804 13412.9-684.351 13430.8-759.222 13441.5-805.826 13465.8-829.128 13503.6-829.128ZM7626.5-840.015C7658.97-840.015 7682.46-831.611 7696.98-814.803 7704.23-809.455 7707.86-796.658 7707.86-776.412 7707.86-761.514 7706.53-749.481 7703.85-740.313 7773.76-527.158 7828.48-376.364 7868.02-287.931 7907.55-199.499 7947.18-135.419 7986.91-95.6907 8006.78-75.8267 8018.91-62.4568 8023.3-55.5808 8027.69-48.7048 8029.89-39.5369 8029.89-28.0769 8029.89-7.06697 8022.25 10.6005 8006.97 24.9254 7991.69 39.2504 7973.54 46.4128 7952.53 46.4128 7923.5 46.4128 7893.99 29.6049 7864-4.01098 7834.02-37.6269 7805.75-83.8487 7779.2-142.676 7752.65-201.504 7739.38-234.547 7739.38-241.805 7739.38-243.333 7738.42-244.097 7736.51-244.097 7715.88-244.097 7669.95-236.839 7598.71-222.323 7527.46-207.807 7470.26-193.673 7427.09-179.921 7416.02-176.483 7406.27-174.764 7397.87-174.764 7382.97-174.764 7371.51-178.202 7363.49-185.078 7357-169.034 7337.04-133.604 7303.61-78.7872 7270.19-23.9704 7246.98 6.58948 7233.99 12.8925 7221.01 19.1954 7209.55 22.3469 7199.61 22.3469 7185.86 22.3469 7169.34 14.8024 7150.05-0.286495 7130.76-15.3755 7121.11-30.9419 7121.11-46.9858 7121.11-61.8838 7169.05-142.294 7264.94-288.218 7317.27-368.056 7365.02-447.129 7408.19-525.439 7494.9-683.587 7547.9-775.553 7567.19-801.338 7586.48-827.123 7606.25-840.015 7626.5-840.015ZM14714.8-842.88C14779.4-842.88 14830.3-830.083 14867.5-804.489 14904.8-778.895 14923.4-749.672 14923.4-716.82 14923.4-649.589 14886.5-615.973 14812.8-615.973 14812.8-653.791 14803.1-680.053 14783.6-694.76 14764.1-709.467 14735.4-716.82 14697.6-716.82 14633.1-716.82 14573.2-701.063 14518-669.548 14462.8-638.033 14435.2-603.367 14435.2-565.549 14435.2-541.483 14445.6-520.951 14466.4-503.952 14487.2-486.953 14541-465.847 14627.7-440.635 14718.6-414.278 14786.2-385.341 14830.3-353.826 14874.4-322.311 14896.5-284.398 14896.5-240.086 14896.5-166.36 14840.3-98.8422 14728-37.5314 14615.7 23.7794 14499 54.4348 14377.9 54.4348 14338.6 54.4348 14307 46.2218 14283.4 29.7959 14259.7 13.37 14247.8-6.87598 14247.8-30.9419 14247.8-50.0418 14253.2-67.8048 14263.9-84.2307 14274.6-100.657 14287.4-108.87 14302.3-108.87 14311.4-108.87 14319.8-107.342 14327.5-104.286 14367.6-87.0957 14405-78.5007 14439.8-78.5007 14499.4-78.5007 14566.3-95.2132 14640.6-128.638 14714.9-162.063 14752.1-194.819 14752.1-226.907 14752.1-240.277 14742.8-253.17 14724.3-265.585 14705.7-278 14668-293.566 14611.1-312.284 14528.2-339.406 14465.9-361.753 14424-379.325 14382.2-396.897 14350.5-419.912 14328.9-448.371 14307.3-476.83 14296.5-511.114 14296.5-551.224 14296.5-622.658 14338.2-689.126 14421.4-750.627 14504.7-812.129 14602.5-842.88 14714.8-842.88ZM3046.32-842.88C3110.88-842.88 3161.78-830.083 3199.03-804.489 3236.27-778.895 3254.89-749.672 3254.89-716.82 3254.89-649.589 3218.03-615.973 3144.3-615.973 3144.3-653.791 3134.56-680.053 3115.08-694.76 3095.6-709.467 3066.95-716.82 3029.13-716.82 2964.57-716.82 2904.7-701.063 2849.5-669.548 2794.3-638.033 2766.7-603.367 2766.7-565.549 2766.7-541.483 2777.11-520.951 2797.93-503.952 2818.75-486.953 2872.51-465.847 2959.23-440.635 3050.14-414.278 3117.66-385.341 3161.78-353.826 3205.9-322.311 3227.96-284.398 3227.96-240.086 3227.96-166.36 3171.81-98.8422 3059.5-37.5314 2947.19 23.7794 2830.49 54.4348 2709.4 54.4348 2670.05 54.4348 2638.54 46.2218 2614.85 29.7959 2591.17 13.37 2579.33-6.87598 2579.33-30.9419 2579.33-50.0418 2584.68-67.8048 2595.37-84.2307 2606.07-100.657 2618.87-108.87 2633.76-108.87 2642.93-108.87 2651.34-107.342 2658.98-104.286 2699.09-87.0957 2736.52-78.5007 2771.28-78.5007 2830.88-78.5007 2897.82-95.2132 2972.12-128.638 3046.42-162.063 3083.57-194.819 3083.57-226.907 3083.57-240.277 3074.3-253.17 3055.78-265.585 3037.25-278 2999.53-293.566 2942.61-312.284 2859.72-339.406 2797.35-361.753 2755.53-379.325 2713.7-396.897 2681.99-419.912 2660.41-448.371 2638.83-476.83 2628.03-511.114 2628.03-551.224 2628.03-622.658 2669.67-689.126 2752.95-750.627 2836.22-812.129 2934.01-842.88 3046.32-842.88ZM593.626-849.756C655.892-849.756 706.411-833.235 745.184-800.192 783.957-767.149 803.343-728.853 803.343-685.306 803.343-653.982 790.928-622.18 766.099-589.901 741.269-557.623 695.811-516.271 629.725-465.847 701.159-440.635 747.476-410.458 768.677-375.314 789.878-340.17 800.479-305.599 800.479-271.601 800.479-198.639 753.684-123.672 660.094-46.6993 566.504 30.2734 468.331 68.7598 365.573 68.7598 308.273 68.7598 279.623 51.3788 279.623 16.6169 279.623-40.6829 319.542-69.3327 399.38-69.3327L427.457-69.3327C464.893-69.3327 512.07-91.0112 568.987-134.368 625.905-177.725 654.364-221.75 654.364-266.444 654.364-293.566 642.713-317.727 619.411-338.928 596.109-360.129 564.976-370.73 526.012-370.73 522.956-370.73 507.867-364.809 480.746-352.967 453.242-341.125 432.996-335.204 420.008-335.204 384.1-335.204 360.703-339.597 349.815-348.383 338.929-357.169 333.485-374.932 333.485-401.672 333.485-420.39 372.449-445.601 450.377-477.307 494.688-494.879 539-524.962 583.312-567.555 627.624-610.147 649.78-646.151 649.78-675.565 649.78-713.383 622.276-732.291 567.268-732.291 515.699-732.291 465.084-726.561 415.424-715.102 365.764-703.642 338.26-689.508 332.912-672.7 327.564-655.892 313.43-568.414 290.51-410.267 267.59-252.119 256.13-160.821 256.13-136.374L250.4-59.0188C247.344-20.0549 238.367 5.06149 223.47 16.3304 208.571 27.5994 191.573 33.2339 172.473 33.2339 121.285 33.2339 95.691 0.190992 95.691-65.8948 95.691-76.2087 98.9379-94.7357 105.432-121.476 122.24-190.617 138.57-286.881 154.423-410.267 170.276-533.652 178.203-600.12 178.203-609.67 178.203-628.77 174.383-638.32 166.743-638.32L151.272-637.174C139.812-636.028 129.689-639.561 120.903-647.774 112.117-655.987 106.387-663.723 103.713-670.981 101.039-678.239 99.702-684.924 99.702-691.036 99.702-728.853 152.8-764.761 258.995-798.759 365.191-832.757 476.735-849.756 593.626-849.756ZM15249.2-927.684C15274.8-927.684 15295.6-920.139 15311.4-905.05 15327.3-889.961 15335.2-872.103 15335.2-851.475 15335.2-824.353 15323-800.574 15298.5-780.137 15274.1-759.7 15252.9-749.481 15234.9-749.481 15212-749.481 15191.7-759.031 15173.9-778.131 15156.1-797.231 15147.2-816.331 15147.2-835.431 15147.2-862.935 15156-885.186 15173.6-902.185 15191.2-919.184 15216.4-927.684 15249.2-927.684ZM5422.24-927.684C5447.83-927.684 5468.56-920.139 5484.41-905.05 5500.26-889.961 5508.19-872.103 5508.19-851.475 5508.19-824.353 5495.97-800.574 5471.52-780.137 5447.07-759.7 5425.87-749.481 5407.91-749.481 5385-749.481 5364.65-759.031 5346.89-778.131 5329.13-797.231 5320.25-816.331 5320.25-835.431 5320.25-862.935 5329.03-885.186 5346.6-902.185 5364.18-919.184 5389.39-927.684 5422.24-927.684Z" stroke="#FFC000" stroke-width="14" stroke-linejoin="round" stroke-miterlimit="10" fill="#FFC000" fill-rule="evenodd" transform="matrix(1 0 0 1.00047 -64.3545 959.849)"/></g></g><path d="M14958.3 1664.54C14891.8 1664.54 14818.1 1713.44 14737.1 1811.23 14656.2 1909.02 14602.7 2012.92 14576.7 2122.94 14697.4 2098.49 14803.8 2046.92 14895.9 1968.23 14987.9 1889.54 15034 1818.1 15034 1753.93 15034 1728.72 15026.9 1707.51 15012.8 1690.32 14998.6 1673.13 14980.5 1664.54 14958.3 1664.54ZM6894.32 1664.54C6827.85 1664.54 6754.12 1713.44 6673.14 1811.23 6592.16 1909.02 6538.68 2012.92 6512.7 2122.94 6633.41 2098.49 6739.8 2046.92 6831.86 1968.23 6923.92 1889.54 6969.95 1818.1 6969.95 1753.93 6969.95 1728.72 6962.89 1707.51 6948.75 1690.32 6934.62 1673.13 6916.47 1664.54 6894.32 1664.54ZM1349.32 1664.54C1282.85 1664.54 1209.12 1713.44 1128.14 1811.23 1047.16 1909.02 993.676 2012.92 967.699 2122.94 1088.41 2098.49 1194.8 2046.92 1286.86 1968.23 1378.92 1889.54 1424.95 1818.1 1424.95 1753.93 1424.95 1728.72 1417.89 1707.51 1403.75 1690.32 1389.62 1673.13 1371.47 1664.54 1349.32 1664.54ZM-4606.68 1664.54C-4673.15 1664.54-4746.88 1713.44-4827.86 1811.23-4908.84 1909.02-4962.32 2012.92-4988.3 2122.94-4867.59 2098.49-4761.2 2046.92-4669.14 1968.23-4577.08 1889.54-4531.05 1818.1-4531.05 1753.93-4531.05 1728.72-4538.11 1707.51-4552.25 1690.32-4566.38 1673.13-4584.52 1664.54-4606.68 1664.54ZM-10147.7 1664.54C-10214.1 1664.54-10287.9 1713.44-10368.9 1811.23-10449.8 1909.02-10503.3 2012.92-10529.3 2122.94-10408.6 2098.49-10302.2 2046.92-10210.1 1968.23-10118.1 1889.54-10072 1818.1-10072 1753.93-10072 1728.72-10079.1 1707.51-10093.2 1690.32-10107.4 1673.13-10125.5 1664.54-10147.7 1664.54ZM7664.53 1545.36C7708.84 1545.36 7742.83 1556.43 7766.52 1578.59 7790.2 1600.75 7802.04 1659.57 7802.04 1755.07 7802.04 1827.65 7780.27 1968.23 7736.72 2176.8 7902.51 1788.69 8087.4 1594.63 8291.38 1594.63 8468.63 1594.63 8572.54 1734.06 8603.1 2012.92 8633.65 2297.13 8668.8 2439.23 8708.53 2439.23 8726.1 2439.23 8746.35 2435.41 8769.27 2427.77 8796.77 2418.6 8818.54 2414.02 8834.59 2414.02 8871.26 2414.02 8889.6 2435.41 8889.6 2478.2 8889.6 2517.16 8864.38 2558.61 8813.96 2602.54 8763.54 2646.47 8700.12 2668.43 8623.72 2668.43 8535.1 2668.43 8471.69 2629.85 8433.49 2552.69L8434.63 2552.69C8397.96 2483.93 8371.22 2355.58 8354.41 2167.63 8337.61 1972.05 8300.17 1874.26 8242.11 1874.26 8187.1 1874.26 8091.98 1976.06 7956.75 2179.66 7821.53 2383.27 7738.25 2533.59 7706.93 2630.61 7700.05 2659.65 7687.25 2683.71 7668.54 2702.81 7649.82 2721.91 7631.29 2731.46 7612.96 2731.46 7496.83 2731.46 7438.76 2678.36 7438.76 2572.17 7438.76 2536.26 7450.22 2454.51 7473.14 2326.93 7502.94 2161.9 7517.84 1960.21 7517.84 1721.84 7517.84 1685.93 7533.5 1647.54 7564.82 1606.67 7596.15 1565.79 7629.38 1545.36 7664.53 1545.36ZM12810 1522.44C12861.9 1522.44 12902.4 1534.66 12931.5 1559.11 12960.5 1583.56 12975 1611.06 12975 1641.62 12975 1672.18 12960.9 1735.21 12932.6 1830.71L12925.7 1855.92C12883.7 2003.37 12858.5 2123.7 12850.1 2216.91 12841.7 2310.12 12837.5 2385.37 12837.5 2442.67 12837.5 2489.27 12845.5 2551.54 12861.6 2629.47 12863.9 2643.22 12865 2654.68 12865 2663.85 12865 2681.42 12848.4 2705.1 12815.1 2734.9 12781.9 2764.7 12746.2 2779.59 12708 2779.59 12607.2 2779.59 12556.7 2703.19 12556.7 2550.39 12556.7 2420.51 12575.1 2262.37 12611.7 2075.95 12619.4 2034.7 12626.3 1995.73 12632.4 1959.06L12632.4 1960.21C12656.8 1821.16 12669 1741.7 12669 1721.84 12669 1665.3 12681.4 1617.94 12706.3 1579.74 12731.1 1541.54 12765.7 1522.44 12810 1522.44ZM-6844 1522.44C-6792.05 1522.44-6751.56 1534.66-6722.53 1559.11-6693.5 1583.56-6678.98 1611.06-6678.98 1641.62-6678.98 1672.18-6693.12 1735.21-6721.38 1830.71L-6728.26 1855.92C-6770.28 2003.37-6795.49 2123.7-6803.9 2216.91-6812.3 2310.12-6816.5 2385.37-6816.5 2442.67-6816.5 2489.27-6808.48 2551.54-6792.44 2629.47-6790.14 2643.22-6789 2654.68-6789 2663.85-6789 2681.42-6805.61 2705.1-6838.85 2734.9-6872.08 2764.7-6907.8 2779.59-6946 2779.59-7046.85 2779.59-7097.27 2703.19-7097.27 2550.39-7097.27 2420.51-7078.93 2262.37-7042.26 2075.95-7034.62 2034.7-7027.75 1995.73-7021.64 1959.06L-7021.64 1960.21C-6997.19 1821.16-6984.96 1741.7-6984.96 1721.84-6984.96 1665.3-6972.55 1617.94-6947.72 1579.74-6922.89 1541.54-6888.32 1522.44-6844 1522.44ZM-15374.7 1506.39C-15330.4 1506.39-15295.1 1521.1-15268.7 1550.51-15242.4 1579.93-15229.2 1609.53-15229.2 1639.33-15229.2 1693.57-15248.3 1770.74-15286.5 1870.82-15308.6 1930.41-15332.5 2014.64-15358.1 2123.51-15383.7 2232.38-15396.5 2302.1-15396.5 2332.66-15396.5 2434.27-15375.5 2485.07-15333.5 2485.07-15267 2485.07-15177.2 2421.28-15064.1 2293.69-14951.1 2166.1-14877.4 2035.46-14843 1901.76-14808.6 1771.12-14778 1685.55-14751.3 1645.06-14724.6 1604.57-14686.7 1584.32-14637.8 1584.32-14558.4 1584.32-14518.7 1628.63-14518.7 1717.26-14518.7 1730.24-14525.1 1756.22-14538.1 1795.18-14583.2 1930.41-14605.8 2082.83-14605.8 2252.44-14605.8 2451.07-14572.1 2569.88-14504.9 2608.84-14482.7 2621.83-14471.7 2637.87-14471.7 2656.97-14471.7 2684.48-14491.2 2710.45-14530.1 2734.9-14569.1 2759.35-14606.1 2771.57-14641.3 2771.57-14701.6 2771.57-14748 2728.98-14780.5 2643.79-14813 2558.61-14829.2 2444.2-14829.2 2300.57-14902.6 2434.27-14987.6 2540.46-15084.2 2619.15-15180.8 2697.85-15278.8 2737.19-15378.2 2737.19-15437 2737.19-15496.4 2706.25-15556.4 2644.37-15616.3 2582.48-15646.3 2487.36-15646.3 2359.01-15646.3 2268.1-15623.4 2130.96-15577.6 1947.6-15537.8 1796.33-15518 1681.35-15518 1602.66-15487.4 1538.48-15439.7 1506.39-15374.7 1506.39ZM-7266.09 1473.16C-7226.37 1473.16-7193.71 1486.15-7168.11 1512.12-7142.52 1538.1-7129.72 1569.8-7129.72 1607.24-7129.72 1651.55-7161.81 1695.1-7225.98 1737.88-7288.63 1780.67-7374.01 1878.46-7482.11 2031.26-7590.22 2184.06-7706.54 2376.2-7831.07 2607.69-7901.36 2739.87-7964.39 2805.95-8020.16 2805.95-8068.29 2805.95-8117.95 2773.48-8169.14 2708.54-8168.37 2658.12-8198.55 2549.63-8259.67 2383.08-8348.08 2146.41-8404.72 1958.68-8429.58 1819.88L-8429.63 1819.6-8431.35 1821.19C-8445.7 1833.65-8463.11 1839.88-8483.6 1839.88-8530.96 1839.88-8574.13 1820.4-8613.09 1781.43-8640.6 1756.22-8662.37 1743.61-8678.42 1743.61-8735.72 1743.61-8831.6 1832.62-8966.06 2010.63-9100.52 2188.64-9181.51 2388.81-9209.01 2611.13-9217.42 2675.31-9236.13 2720.19-9265.17 2745.79-9294.2 2771.38-9333.54 2784.18-9383.2 2784.18-9435.92 2784.18-9473.35 2754.19-9495.51 2694.22-9517.67 2634.24-9528.74 2536.26-9528.74 2400.27-9528.74 2344.5-9527.22 2269.24-9524.16 2174.51-9521.11 2085.12-9512.32 1975.87-9497.8 1846.75-9493.98 1813.14-9491.31 1786.78-9489.78 1767.68-9482.9 1692.81-9475.07 1641.43-9466.29 1613.54-9457.5 1585.66-9437.06 1559.49-9404.98 1535.04-9372.89 1510.59-9337.36 1498.37-9298.4 1498.37-9257.14 1498.37-9225.82 1510.21-9204.43 1533.9-9183.04 1557.58-9172.34 1583.56-9172.34 1611.82-9172.34 1647.73-9189.53 1722.22-9223.91 1835.29-9236.13 1874.26-9246.45 1920.86-9254.85 1975.1L-9283.5 2151.59-9264.02 2114.92C-9171.58 1929.26-9072.07 1778.57-8965.49 1662.82-8858.91 1547.08-8754.82 1489.2-8653.2 1489.2-8575.28 1489.2-8511.67 1510.59-8462.4 1553.38-8453.16 1561.4-8444.78 1569.7-8437.28 1578.29L-8431.41 1585.35-8429.74 1580.33C-8408.57 1521.11-8364.1 1491.49-8296.34 1491.49-8200.08 1491.49-8151.95 1548.79-8151.95 1663.39-8151.95 1736.74-8150.23 1788.88-8146.79 1819.82-8143.35 1850.76-8131.51 1906.92-8111.26 1988.28-8091.02 2069.65-8070.96 2137.45-8051.1 2191.7-8039.64 2224.55-8025.89 2267.33-8009.84 2320.05-8000.68 2352.9-7992.65 2375.82-7985.78 2388.81-7981.19 2381.93-7965.15 2352.14-7937.65 2299.42-7921.6 2267.33-7867.36 2176.23-7774.91 2026.1-7682.47 1875.98-7601.3 1756.22-7531.39 1666.83-7461.49 1577.44-7409.34 1522.82-7374.96 1502.95-7340.58 1483.09-7304.29 1473.16-7266.09 1473.16ZM-2277.34 1469.72-2602.81 2088.56C-2554.67 2080.15-2505.4 2072.51-2454.97 2065.64-2421.36 2061.82-2335.79 2045.77-2198.27 2017.51-2164.65 2010.63-2131.04 2004.52-2097.42 1999.17-2115.76 1954.09-2170 1793.66-2260.15 1517.85-2268.56 1492.64-2274.29 1476.6-2277.34 1469.72ZM4106.11 1468.57C4220.71 1468.57 4278.01 1538.1 4278.01 1677.15 4278.01 1722.22 4257.76 1837.2 4217.27 2022.09 4192.82 2132.11 4180.6 2211.94 4180.6 2261.6 4399.1 1781.81 4596.21 1541.92 4771.93 1541.92 4842.98 1541.92 4900.09 1570.19 4943.26 1626.72 4986.42 1683.26 5008.77 1808.55 5010.3 2002.61 5011.06 2179.86 5020.23 2268.48 5037.8 2268.48 5051.56 2268.48 5099.3 2182.53 5181.05 2010.63 5271.97 1820.4 5349.71 1694.72 5414.26 1633.6 5478.82 1572.48 5546.63 1541.92 5617.68 1541.92 5702.48 1541.92 5763.98 1578.4 5802.18 1651.36 5840.38 1724.32 5867.12 1847.52 5882.4 2020.94 5893.86 2158.46 5909.33 2262.37 5928.82 2332.66 5948.3 2402.94 5981.72 2449.55 6029.09 2472.47 6067.29 2490.8 6086.39 2518.31 6086.39 2554.98 6086.39 2587.83 6064.62 2620.87 6021.07 2654.11 5977.52 2687.34 5933.21 2703.96 5888.13 2703.96 5810.21 2703.96 5749.28 2665.57 5705.35 2588.79 5661.42 2512 5631.81 2357.87 5616.53 2126.38 5608.13 2014.83 5599.15 1940.92 5589.6 1904.63 5580.05 1868.34 5565.72 1850.19 5546.63 1850.19 5529.82 1850.19 5505.37 1877.5 5473.28 1932.13 5441.2 1986.76 5385.8 2095.43 5307.11 2258.17 5237.59 2404.85 5177.8 2507.23 5127.76 2565.29 5077.72 2623.36 5024.05 2652.39 4966.75 2652.39 4922.44 2652.39 4877.94 2633.29 4833.24 2595.09 4788.55 2556.89 4764.29 2418.22 4760.47 2179.09 4756.65 1965.94 4742.9 1859.36 4719.22 1859.36 4687.13 1859.36 4609.96 1954.09 4487.73 2143.57 4365.49 2333.04 4273.42 2502.64 4211.54 2652.39 4202.37 2731.08 4158.44 2770.43 4079.75 2770.43 3979.67 2770.43 3929.62 2698.23 3929.62 2553.83 3929.62 2320.05 3942.23 2120.26 3967.44 1954.48 3987.31 1825.36 3997.24 1698.54 3997.24 1574.01 3997.24 1544.21 4006.79 1519.19 4025.89 1498.94 4044.99 1478.7 4071.73 1468.57 4106.11 1468.57ZM-5781.51 1433.05C-5708.93 1433.05-5647.05 1469.15-5595.86 1541.35-5544.67 1613.54-5519.08 1688.61-5519.08 1766.53-5519.08 1839.88-5532.64 1889.35-5559.76 1914.94-5586.88 1940.53-5613.05 1953.33-5638.26 1953.33-5712.37 1953.33-5755.54 1902.14-5767.76 1799.77-5776.93 1724.9-5795.65 1687.46-5823.92 1687.46-5883.51 1687.46-5962.2 1772.26-6059.99 1941.87-6157.78 2111.48-6206.68 2260.08-6206.68 2387.66-6206.68 2490.8-6150.91 2542.37-6039.36 2542.37-5916.36 2542.37-5792.21 2498.82-5666.91 2411.73-5608.08 2369.71-5561.48 2348.7-5527.1 2348.7-5485.08 2348.7-5464.07 2369.71-5464.07 2411.73-5464.07 2470.56-5531.5 2547.15-5666.34 2641.5-5801.19 2735.85-5942.72 2783.03-6090.93 2783.03-6216.99 2783.03-6312.87 2748.65-6378.58 2679.89-6444.28 2611.13-6477.13 2515.63-6477.13 2393.39-6477.13 2200.87-6398.82 1992.68-6242.21 1768.83-6085.58 1544.97-5932.02 1433.05-5781.51 1433.05ZM14988.1 1431.9C15073.7 1431.9 15142.4 1459.02 15194.4 1513.27 15246.3 1567.51 15272.3 1632.07 15272.3 1706.94 15272.3 1839.88 15208.5 1966.51 15080.9 2086.84 14953.4 2207.17 14789.9 2290.25 14590.5 2336.09 14567.5 2341.44 14556.1 2355.19 14556.1 2377.35 14556.1 2414.02 14572.3 2448.97 14604.8 2482.21 14637.2 2515.44 14680.6 2532.06 14734.8 2532.06 14888.4 2532.06 15040.8 2452.98 15192.1 2294.84 15221.1 2264.28 15249.4 2249 15276.9 2249 15322.7 2249 15345.7 2274.59 15345.7 2325.78 15345.7 2405.24 15278.8 2500.16 15145.1 2610.56 15011.4 2720.96 14860.5 2776.16 14692.4 2776.16 14563.3 2776.16 14461.7 2735.47 14387.6 2654.11 14313.5 2572.74 14276.5 2459.48 14276.5 2314.32 14276.5 2100.4 14352.1 1899.85 14503.4 1712.67 14654.6 1525.49 14816.2 1431.9 14988.1 1431.9ZM6924.11 1431.9C7009.68 1431.9 7078.44 1459.02 7130.39 1513.27 7182.35 1567.51 7208.32 1632.07 7208.32 1706.94 7208.32 1839.88 7144.53 1966.51 7016.94 2086.84 6889.35 2207.17 6725.86 2290.25 6526.45 2336.09 6503.53 2341.44 6492.07 2355.19 6492.07 2377.35 6492.07 2414.02 6508.31 2448.97 6540.78 2482.21 6573.25 2515.44 6616.6 2532.06 6670.85 2532.06 6824.41 2532.06 6976.83 2452.98 7128.1 2294.84 7157.13 2264.28 7185.4 2249 7212.9 2249 7258.74 2249 7281.66 2274.59 7281.66 2325.78 7281.66 2405.24 7214.81 2500.16 7081.12 2610.56 6947.42 2720.96 6796.53 2776.16 6628.45 2776.16 6499.33 2776.16 6397.72 2735.47 6323.61 2654.11 6249.5 2572.74 6212.45 2459.48 6212.45 2314.32 6212.45 2100.4 6288.09 1899.85 6439.36 1712.67 6590.63 1525.49 6752.21 1431.9 6924.11 1431.9ZM1379.11 1431.9C1464.68 1431.9 1533.44 1459.02 1585.39 1513.27 1637.34 1567.51 1663.32 1632.07 1663.32 1706.94 1663.32 1839.88 1599.53 1966.51 1471.94 2086.84 1344.35 2207.17 1180.86 2290.25 981.451 2336.09 958.531 2341.44 947.072 2355.19 947.072 2377.35 947.072 2414.02 963.307 2448.97 995.777 2482.21 1028.25 2515.44 1071.6 2532.06 1125.85 2532.06 1279.41 2532.06 1431.83 2452.98 1583.1 2294.84 1612.13 2264.28 1640.4 2249 1667.9 2249 1713.74 2249 1736.66 2274.59 1736.66 2325.78 1736.66 2405.24 1669.81 2500.16 1536.11 2610.56 1402.42 2720.96 1251.53 2776.16 1083.45 2776.16 954.33 2776.16 852.719 2735.47 778.611 2654.11 704.504 2572.74 667.449 2459.48 667.449 2314.32 667.449 2100.4 743.084 1899.85 894.355 1712.67 1045.63 1525.49 1207.21 1431.9 1379.11 1431.9ZM-4576.88 1431.9C-4491.32 1431.9-4422.56 1459.02-4370.61 1513.27-4318.65 1567.51-4292.68 1632.07-4292.68 1706.94-4292.68 1839.88-4356.47 1966.51-4484.06 2086.84-4611.65 2207.17-4775.14 2290.25-4974.55 2336.09-4997.46 2341.44-5008.92 2355.19-5008.92 2377.35-5008.92 2414.02-4992.69 2448.97-4960.22 2482.21-4927.75 2515.44-4884.4 2532.06-4830.15 2532.06-4676.59 2532.06-4524.17 2452.98-4372.9 2294.84-4343.87 2264.28-4315.6 2249-4288.09 2249-4242.25 2249-4219.33 2274.59-4219.33 2325.78-4219.33 2405.24-4286.18 2500.16-4419.88 2610.56-4553.58 2720.96-4704.47 2776.16-4872.55 2776.16-5001.67 2776.16-5103.28 2735.47-5177.39 2654.11-5251.49 2572.74-5288.55 2459.48-5288.55 2314.32-5288.55 2100.4-5212.91 1899.85-5061.64 1712.67-4910.37 1525.49-4748.78 1431.9-4576.88 1431.9ZM-10117.9 1431.9C-10032.3 1431.9-9963.56 1459.02-9911.61 1513.27-9859.65 1567.51-9833.68 1632.07-9833.68 1706.94-9833.68 1839.88-9897.47 1966.51-10025.1 2086.84-10152.6 2207.17-10316.1 2290.25-10515.5 2336.09-10538.5 2341.44-10549.9 2355.19-10549.9 2377.35-10549.9 2414.02-10533.7 2448.97-10501.2 2482.21-10468.8 2515.44-10425.4 2532.06-10371.2 2532.06-10217.6 2532.06-10065.2 2452.98-9913.9 2294.84-9884.87 2264.28-9856.6 2249-9829.09 2249-9783.25 2249-9760.33 2274.59-9760.33 2325.78-9760.33 2405.24-9827.18 2500.16-9960.88 2610.56-10094.6 2720.96-10245.5 2776.16-10413.6 2776.16-10542.7 2776.16-10644.3 2735.47-10718.4 2654.11-10792.5 2572.74-10829.5 2459.48-10829.5 2314.32-10829.5 2100.4-10753.9 1899.85-10602.6 1712.67-10451.4 1525.49-10289.8 1431.9-10117.9 1431.9ZM3546 1397.52C3675.12 1397.52 3739.68 1453.68 3739.68 1565.98 3739.68 1595.78 3724.97 1622.52 3695.56 1646.2 3666.14 1669.89 3641.12 1681.73 3620.49 1681.73 3612.09 1681.73 3597.19 1676.38 3575.8 1665.69 3554.41 1654.99 3537.98 1649.64 3526.52 1649.64 3458.53 1649.64 3383.65 1672.56 3301.91 1718.4 3220.16 1764.24 3179.29 1817.72 3179.29 1878.84 3179.29 1908.64 3193.8 1937.48 3222.83 1965.36 3251.87 1993.25 3311.07 2028.2 3400.46 2070.22 3532.63 2132.87 3619.73 2189.41 3661.75 2239.83 3703.77 2290.25 3724.78 2346.03 3724.78 2407.15 3724.78 2518.69 3649.33 2611.71 3498.45 2686.2 3347.56 2760.68 3178.14 2797.93 2990.2 2797.93 2851.91 2797.93 2782.77 2747.89 2782.77 2647.8 2782.77 2611.13 2797.29 2579.81 2826.32 2553.83 2855.35 2527.86 2887.82 2514.87 2923.73 2514.87 2938.24 2514.87 2960.78 2520.22 2991.34 2530.91 3021.9 2542.37 3050.17 2548.1 3076.14 2548.1 3147.96 2548.1 3223.21 2536.64 3301.91 2513.72 3380.6 2490.8 3432.55 2462.53 3457.76 2428.92 3454.71 2387.66 3389 2337.24 3260.65 2277.65 3103.27 2202.01 3002.8 2136.88 2959.25 2082.26 2915.71 2027.63 2893.93 1968.23 2893.93 1904.05 2893.93 1768.83 2969.76 1650.6 3121.41 1549.37 3273.07 1448.14 3414.6 1397.52 3546 1397.52ZM2555 1397.52C2684.12 1397.52 2748.68 1453.68 2748.68 1565.98 2748.68 1595.78 2733.97 1622.52 2704.56 1646.2 2675.14 1669.89 2650.12 1681.73 2629.49 1681.73 2621.09 1681.73 2606.19 1676.38 2584.8 1665.69 2563.41 1654.99 2546.98 1649.64 2535.52 1649.64 2467.53 1649.64 2392.65 1672.56 2310.91 1718.4 2229.16 1764.24 2188.29 1817.72 2188.29 1878.84 2188.29 1908.64 2202.8 1937.48 2231.83 1965.36 2260.87 1993.25 2320.07 2028.2 2409.46 2070.22 2541.63 2132.87 2628.73 2189.41 2670.75 2239.83 2712.77 2290.25 2733.78 2346.03 2733.78 2407.15 2733.78 2518.69 2658.33 2611.71 2507.45 2686.2 2356.55 2760.68 2187.14 2797.93 1999.2 2797.93 1860.91 2797.93 1791.77 2747.89 1791.77 2647.8 1791.77 2611.13 1806.29 2579.81 1835.32 2553.83 1864.35 2527.86 1896.82 2514.87 1932.73 2514.87 1947.24 2514.87 1969.78 2520.22 2000.34 2530.91 2030.9 2542.37 2059.17 2548.1 2085.14 2548.1 2156.96 2548.1 2232.21 2536.64 2310.91 2513.72 2389.6 2490.8 2441.55 2462.53 2466.76 2428.92 2463.71 2387.66 2398 2337.24 2269.65 2277.65 2112.27 2202.01 2011.8 2136.88 1968.25 2082.26 1924.71 2027.63 1902.93 1968.23 1902.93 1904.05 1902.93 1768.83 1978.76 1650.6 2130.41 1549.37 2282.07 1448.14 2423.6 1397.52 2555 1397.52ZM348.004 1397.52C477.119 1397.52 541.678 1453.68 541.678 1565.98 541.678 1595.78 526.969 1622.52 497.557 1646.2 468.143 1669.89 443.121 1681.73 422.494 1681.73 414.09 1681.73 399.191 1676.38 377.799 1665.69 356.408 1654.99 339.982 1649.64 328.521 1649.64 260.525 1649.64 185.654 1672.56 103.906 1718.4 22.1582 1764.24-18.7148 1817.72-18.7148 1878.84-18.7148 1908.64-4.19922 1937.48 24.832 1965.36 53.8652 1993.25 113.074 2028.2 202.463 2070.22 334.633 2132.87 421.729 2189.41 463.75 2239.83 505.77 2290.25 526.779 2346.03 526.779 2407.15 526.779 2518.69 451.334 2611.71 300.445 2686.2 149.555 2760.68-19.8613 2797.93-207.805 2797.93-346.088 2797.93-415.23 2747.89-415.23 2647.8-415.23 2611.13-400.715 2579.81-371.682 2553.83-342.65 2527.86-310.18 2514.87-274.271 2514.87-259.756 2514.87-237.219 2520.22-206.658 2530.91-176.1 2542.37-147.83 2548.1-121.855 2548.1-50.0391 2548.1 25.2148 2536.64 103.906 2513.72 182.598 2490.8 234.551 2462.53 259.762 2428.92 256.705 2387.66 191.002 2337.24 62.6504 2277.65-94.7324 2202.01-195.199 2136.88-238.746 2082.26-282.295 2027.63-304.068 1968.23-304.068 1904.05-304.068 1768.83-228.242 1650.6-76.5879 1549.37 75.0664 1448.14 216.596 1397.52 348.004 1397.52ZM-642.996 1397.52C-513.881 1397.52-449.322 1453.68-449.322 1565.98-449.322 1595.78-464.031 1622.52-493.443 1646.2-522.857 1669.89-547.879 1681.73-568.506 1681.73-576.912 1681.73-591.809 1676.38-613.201 1665.69-634.592 1654.99-651.018 1649.64-662.479 1649.64-730.475 1649.64-805.346 1672.56-887.094 1718.4-968.842 1764.24-1009.71 1817.72-1009.71 1878.84-1009.71 1908.64-995.199 1937.48-966.168 1965.36-937.135 1993.25-877.926 2028.2-788.537 2070.22-656.367 2132.87-569.271 2189.41-527.25 2239.83-485.232 2290.25-464.221 2346.03-464.221 2407.15-464.221 2518.69-539.666 2611.71-690.555 2686.2-841.445 2760.68-1010.86 2797.93-1198.8 2797.93-1337.09 2797.93-1406.23 2747.89-1406.23 2647.8-1406.23 2611.13-1391.71 2579.81-1362.68 2553.83-1333.65 2527.86-1301.18 2514.87-1265.27 2514.87-1250.76 2514.87-1228.22 2520.22-1197.66 2530.91-1167.1 2542.37-1138.83 2548.1-1112.85 2548.1-1041.04 2548.1-965.785 2536.64-887.094 2513.72-808.402 2490.8-756.449 2462.53-731.238 2428.92-734.295 2387.66-799.998 2337.24-928.35 2277.65-1085.73 2202.01-1186.2 2136.88-1229.75 2082.26-1273.29 2027.63-1295.07 1968.23-1295.07 1904.05-1295.07 1768.83-1219.24 1650.6-1067.59 1549.37-915.936 1448.14-774.404 1397.52-642.996 1397.52ZM-13582 1397.52C-13452.9 1397.52-13388.3 1453.68-13388.3 1565.98-13388.3 1595.78-13403 1622.52-13432.4 1646.2-13461.9 1669.89-13486.9 1681.73-13507.5 1681.73-13515.9 1681.73-13530.8 1676.38-13552.2 1665.69-13573.6 1654.99-13590 1649.64-13601.5 1649.64-13669.5 1649.64-13744.3 1672.56-13826.1 1718.4-13907.8 1764.24-13948.7 1817.72-13948.7 1878.84-13948.7 1908.64-13934.2 1937.48-13905.2 1965.36-13876.1 1993.25-13816.9 2028.2-13727.5 2070.22-13595.4 2132.87-13508.3 2189.41-13466.2 2239.83-13424.2 2290.25-13403.2 2346.03-13403.2 2407.15-13403.2 2518.69-13478.7 2611.71-13629.6 2686.2-13780.4 2760.68-13949.9 2797.93-14137.8 2797.93-14276.1 2797.93-14345.2 2747.89-14345.2 2647.8-14345.2 2611.13-14330.7 2579.81-14301.7 2553.83-14272.6 2527.86-14240.2 2514.87-14204.3 2514.87-14189.8 2514.87-14167.2 2520.22-14136.7 2530.91-14106.1 2542.37-14077.8 2548.1-14051.9 2548.1-13980 2548.1-13904.8 2536.64-13826.1 2513.72-13747.4 2490.8-13695.4 2462.53-13670.2 2428.92-13673.3 2387.66-13739 2337.24-13867.3 2277.65-14024.7 2202.01-14125.2 2136.88-14168.7 2082.26-14212.3 2027.63-14234.1 1968.23-14234.1 1904.05-14234.1 1768.83-14158.2 1650.6-14006.6 1549.37-13854.9 1448.14-13713.4 1397.52-13582 1397.52ZM13724.7 1061.75C13766.7 1061.75 13799.5 1074.54 13823.2 1100.14 13846.9 1125.73 13858.7 1154.19 13858.7 1185.51 13858.7 1197.74 13826.3 1315.77 13761.3 1539.63 14004.3 1518.23 14137.6 1507.54 14161.3 1507.54 14201.8 1507.54 14228.5 1513.46 14241.5 1525.3 14254.5 1537.14 14261 1559.87 14261 1593.49 14261 1661.48 14203.3 1704.65 14087.9 1722.99L13692.6 1789.45C13685.7 1789.45 13664.1 1874.64 13627.8 2045.01 13591.5 2215.38 13573.4 2318.52 13573.4 2354.43 13573.4 2417.08 13580.1 2460.82 13593.4 2485.65 13606.8 2510.48 13628.8 2522.89 13659.3 2522.89 13702.1 2522.89 13743.2 2515.44 13782.5 2500.54 13821.9 2485.65 13873.6 2452.22 13937.8 2400.27 13977.5 2367.42 14011.2 2350.99 14038.7 2350.99 14060.8 2350.99 14078.6 2357.29 14091.9 2369.9 14105.3 2382.51 14112 2397.21 14112 2414.02 14112 2481.25 14057.8 2557.46 13949.3 2642.65 13840.8 2727.83 13726.2 2770.43 13605.5 2770.43 13504.6 2770.43 13427.6 2740.63 13374.5 2681.04 13321.5 2621.45 13294.9 2535.88 13294.9 2424.33 13294.9 2321.2 13333.5 2115.3 13410.6 1806.64 13361.8 1811.99 13327.8 1814.67 13308.7 1814.67L13284.6 1814.67C13249.4 1814.67 13213.7 1803.21 13177.4 1780.29 13141.1 1757.37 13123 1720.69 13123 1670.27 13123 1606.09 13159.3 1574.01 13231.9 1574.01L13477.1 1564.84C13509.2 1472.39 13543.2 1351.3 13579.1 1201.56 13600.5 1108.35 13649 1061.75 13724.7 1061.75ZM9522.65 1061.75C9564.67 1061.75 9597.52 1074.54 9621.21 1100.14 9644.89 1125.73 9656.73 1154.19 9656.73 1185.51 9656.73 1197.74 9624.26 1315.77 9559.32 1539.63 9802.28 1518.23 9935.59 1507.54 9959.28 1507.54 9999.77 1507.54 10026.5 1513.46 10039.5 1525.3 10052.5 1537.14 10059 1559.87 10059 1593.49 10059 1661.48 10001.3 1704.65 9885.93 1722.99L9490.56 1789.45C9483.69 1789.45 9462.11 1874.64 9425.82 2045.01 9389.53 2215.38 9371.38 2318.52 9371.38 2354.43 9371.38 2417.08 9378.06 2460.82 9391.44 2485.65 9404.8 2510.48 9426.77 2522.89 9457.33 2522.89 9500.11 2522.89 9541.18 2515.44 9580.53 2500.54 9619.87 2485.65 9671.63 2452.22 9735.81 2400.27 9775.54 2367.42 9809.15 2350.99 9836.66 2350.99 9858.81 2350.99 9876.57 2357.29 9889.95 2369.9 9903.31 2382.51 9910 2397.21 9910 2414.02 9910 2481.25 9855.75 2557.46 9747.27 2642.65 9638.78 2727.83 9524.18 2770.43 9403.47 2770.43 9302.62 2770.43 9225.65 2740.63 9172.55 2681.04 9119.45 2621.45 9092.9 2535.88 9092.9 2424.33 9092.9 2321.2 9131.48 2115.3 9208.65 1806.64 9159.75 1811.99 9125.76 1814.67 9106.66 1814.67L9082.59 1814.67C9047.45 1814.67 9011.73 1803.21 8975.44 1780.29 8939.15 1757.37 8921 1720.69 8921 1670.27 8921 1606.09 8957.29 1574.01 9029.88 1574.01L9275.12 1564.84C9307.21 1472.39 9341.2 1351.3 9377.11 1201.56 9398.5 1108.35 9447.02 1061.75 9522.65 1061.75ZM-2231.5 1039.97C-2166.56 1039.97-2119.58 1056.78-2090.55 1090.4-2076.03 1101.09-2068.77 1126.69-2068.77 1167.18-2068.77 1196.97-2071.45 1221.04-2076.79 1239.38-1936.98 1665.69-1827.54 1967.27-1748.47 2144.14-1669.39 2321-1590.13 2449.17-1510.67 2528.62-1470.94 2568.35-1446.69 2595.09-1437.9 2608.84-1429.12 2622.59-1424.72 2640.93-1424.72 2663.85-1424.72 2705.87-1440 2741.2-1470.56 2769.85-1501.12 2798.5-1537.41 2812.83-1579.43 2812.83-1637.5 2812.83-1696.51 2779.21-1756.49 2711.98-1816.46 2644.75-1873 2552.3-1926.1 2434.65-1979.19 2316.99-2005.74 2250.91-2005.74 2236.39-2005.74 2233.34-2007.65 2231.81-2011.47 2231.81-2052.73 2231.81-2144.6 2246.32-2287.09 2275.36-2429.57 2304.39-2543.98 2332.66-2630.31 2360.16-2652.47 2367.04-2671.95 2370.47-2688.76 2370.47-2718.55 2370.47-2741.47 2363.6-2757.52 2349.85-2770.5 2381.93-2810.42 2452.79-2877.27 2562.43-2944.12 2672.06-2990.54 2733.18-3016.51 2745.79-3042.49 2758.39-3065.41 2764.7-3085.27 2764.7-3112.77 2764.7-3145.82 2749.61-3184.4 2719.43-3222.98 2689.25-3242.27 2658.12-3242.27 2626.03-3242.27 2596.23-3146.39 2435.41-2954.63 2143.57-2849.96 1983.89-2754.46 1825.74-2668.13 1669.12-2494.7 1352.83-2388.7 1168.9-2350.12 1117.33-2311.53 1065.76-2272 1039.97-2231.5 1039.97ZM11945.1 1034.24C12074.3 1034.24 12176.1 1059.84 12250.6 1111.02 12325 1162.21 12362.3 1220.66 12362.3 1286.36 12362.3 1420.82 12288.6 1488.06 12141.1 1488.06 12141.1 1412.42 12121.6 1359.9 12082.7 1330.48 12043.7 1301.07 11986.4 1286.36 11910.8 1286.36 11781.6 1286.36 11661.9 1317.88 11551.5 1380.91 11441.1 1443.94 11385.9 1513.27 11385.9 1588.9 11385.9 1637.04 11406.7 1678.1 11448.4 1712.1 11490 1746.1 11597.5 1788.31 11771 1838.73 11952.8 1891.45 12087.8 1949.32 12176.1 2012.35 12264.3 2075.38 12308.4 2151.21 12308.4 2239.83 12308.4 2387.28 12196.1 2522.32 11971.5 2644.94 11746.9 2767.56 11513.5 2828.87 11271.3 2828.87 11192.6 2828.87 11129.6 2812.45 11082.2 2779.59 11034.8 2746.74 11011.2 2706.25 11011.2 2658.12 11011.2 2619.92 11021.9 2584.39 11043.2 2551.54 11064.6 2518.69 11090.2 2502.26 11120 2502.26 11138.4 2502.26 11155.2 2505.32 11170.5 2511.43 11250.7 2545.81 11325.5 2563 11395.1 2563 11514.2 2563 11648.1 2529.58 11796.7 2462.73 11945.3 2395.88 12019.6 2330.36 12019.6 2266.19 12019.6 2239.45 12001.1 2213.66 11964.1 2188.83 11927 2164 11851.6 2132.87 11737.7 2095.43 11571.9 2041.19 11447.2 1996.5 11363.6 1961.35 11279.9 1926.21 11216.5 1880.18 11173.3 1823.26 11130.2 1766.34 11108.6 1697.77 11108.6 1617.55 11108.6 1474.69 11191.8 1341.75 11358.4 1218.75 11524.9 1095.74 11720.5 1034.24 11945.1 1034.24ZM-11391.9 1034.24C-11262.7 1034.24-11160.9 1059.84-11086.4 1111.02-11012 1162.21-10974.7 1220.66-10974.7 1286.36-10974.7 1420.82-11048.4 1488.06-11195.9 1488.06-11195.9 1412.42-11215.4 1359.9-11254.3 1330.48-11293.3 1301.07-11350.6 1286.36-11426.2 1286.36-11555.3 1286.36-11675.1 1317.88-11785.5 1380.91-11895.9 1443.94-11951.1 1513.27-11951.1 1588.9-11951.1 1637.04-11930.3 1678.1-11888.6 1712.1-11847 1746.1-11739.5 1788.31-11566 1838.73-11384.2 1891.45-11249.2 1949.32-11160.9 2012.35-11072.7 2075.38-11028.6 2151.21-11028.6 2239.83-11028.6 2387.28-11140.9 2522.32-11365.5 2644.94-11590.1 2767.56-11823.5 2828.87-12065.7 2828.87-12144.4 2828.87-12207.4 2812.45-12254.8 2779.59-12302.2 2746.74-12325.8 2706.25-12325.8 2658.12-12325.8 2619.92-12315.1 2584.39-12293.8 2551.54-12272.4 2518.69-12246.8 2502.26-12217 2502.26-12198.6 2502.26-12181.8 2505.32-12166.5 2511.43-12086.3 2545.81-12011.5 2563-11941.9 2563-11822.7 2563-11688.9 2529.58-11540.3 2462.73-11391.7 2395.88-11317.4 2330.36-11317.4 2266.19-11317.4 2239.45-11335.9 2213.66-11372.9 2188.83-11410 2164-11485.4 2132.87-11599.3 2095.43-11765.1 2041.19-11889.8 1996.5-11973.4 1961.35-12057.1 1926.21-12120.5 1880.18-12163.7 1823.26-12206.8 1766.34-12228.4 1697.77-12228.4 1617.55-12228.4 1474.69-12145.2 1341.75-11978.6 1218.75-11812.1 1095.74-11616.5 1034.24-11391.9 1034.24ZM-16297.2 1020.49C-16172.7 1020.49-16071.7 1053.53-15994.1 1119.62-15916.6 1185.7-15877.8 1262.3-15877.8 1349.39-15877.8 1412.04-15902.6 1475.64-15952.3 1540.2-16002 1604.76-16092.9 1687.46-16225 1788.31-16082.2 1838.73-15989.5 1899.09-15947.1 1969.37-15904.7 2039.66-15883.5 2108.8-15883.5 2176.8-15883.5 2322.72-15977.1 2472.66-16164.3 2626.6-16351.5 2780.55-16547.8 2857.52-16753.4 2857.52-16868 2857.52-16925.3 2822.76-16925.3 2753.24-16925.3 2638.64-16845.4 2581.34-16685.7 2581.34L-16629.6 2581.34C-16554.7 2581.34-16460.4 2537.98-16346.5 2451.27-16232.7 2364.55-16175.8 2276.5-16175.8 2187.11-16175.8 2132.87-16199.1 2084.55-16245.7 2042.15-16292.3 1999.74-16354.5 1978.54-16432.5 1978.54-16438.6 1978.54-16468.8 1990.38-16523 2014.07-16578 2037.75-16618.5 2049.59-16644.5 2049.59-16716.3 2049.59-16763.1 2040.81-16784.9 2023.24-16806.6 2005.66-16817.5 1970.14-16817.5 1916.66-16817.5 1879.22-16739.6 1828.8-16583.7 1765.39-16495.1 1730.24-16406.5 1670.08-16317.9 1584.89-16229.2 1499.71-16184.9 1427.7-16184.9 1368.87-16184.9 1293.24-16239.9 1255.42-16350 1255.42-16453.1 1255.42-16554.3 1266.88-16653.7 1289.8-16753 1312.72-16808 1340.99-16818.7 1374.6-16829.4 1408.22-16857.6 1583.17-16903.5 1899.47-16949.3 2215.76-16972.2 2398.36-16972.2 2447.25L-16983.7 2601.96C-16989.8 2679.89-17007.8 2730.12-17037.6 2752.66-17067.4 2775.2-17101.4 2786.47-17139.6 2786.47-17241.9 2786.47-17293.1 2720.38-17293.1 2588.21-17293.1 2567.58-17286.6 2530.53-17273.6 2477.05-17240 2338.77-17207.4 2146.24-17175.7 1899.47-17143.9 1652.7-17128.1 1519.76-17128.1 1500.66-17128.1 1462.46-17135.7 1443.36-17151 1443.36L-17182 1445.65C-17204.9 1447.95-17225.1 1440.88-17242.7 1424.45-17260.3 1408.03-17271.7 1392.56-17277.1 1378.04-17282.4 1363.52-17285.1 1350.15-17285.1 1337.93-17285.1 1262.3-17178.9 1190.48-16966.5 1122.48-16754.1 1054.49-16531 1020.49-16297.2 1020.49ZM13014 864.634C13065.2 864.634 13106.6 879.723 13138.3 909.901 13170 940.079 13185.9 975.796 13185.9 1017.05 13185.9 1071.3 13161.4 1118.85 13112.5 1159.73 13063.6 1200.6 13021.2 1221.04 12985.3 1221.04 12939.5 1221.04 12898.8 1201.94 12863.3 1163.74 12827.8 1125.54 12810 1087.34 12810 1049.14 12810 994.132 12827.6 949.629 12862.7 915.631 12897.9 881.633 12948.3 864.634 13014 864.634ZM-6640.02 864.634C-6588.83 864.634-6547.38 879.723-6515.68 909.901-6483.97 940.079-6468.12 975.796-6468.12 1017.05-6468.12 1071.3-6492.57 1118.85-6541.46 1159.73-6590.36 1200.6-6632.76 1221.04-6668.67 1221.04-6714.51 1221.04-6755.19 1201.94-6790.72 1163.74-6826.24 1125.54-6844 1087.34-6844 1049.14-6844 994.132-6826.43 949.629-6791.29 915.631-6756.15 881.633-6705.72 864.634-6640.02 864.634Z" stroke="#FFC000" stroke-width="28" stroke-linejoin="round" stroke-miterlimit="10" fill="#FFC000" fill-rule="evenodd"/><text fill="#000000" fill-opacity="0" font-family="Arial,Arial_MSFontService,sans-serif" font-size="1992.89" x="-17293.1" y="2608.41">Bus Service Assessment Site</text></g></svg>